<?xml version="1.0" encoding="iso-8859-1"?>
<!-- Generator: Adobe Illustrator 16.0.0, SVG Export Plug-In . SVG Version: 6.00 Build 0)  -->
<!DOCTYPE svg PUBLIC "-//W3C//DTD SVG 1.1//EN" "http://www.w3.org/Graphics/SVG/1.1/DTD/svg11.dtd">
<svg version="1.1" id="Capa_1" xmlns="http://www.w3.org/2000/svg" xmlns:xlink="http://www.w3.org/1999/xlink" x="0px" y="0px"
	 width="48.825px" height="48.825px" viewBox="0 0 48.825 48.825" style="enable-background:new 0 0 48.825 48.825;"
	 xml:space="preserve">
<g>
	<g>
		<path d="M39.375,12.712C39.375,5.703,32.663,0,24.413,0C16.162,0,9.45,5.703,9.45,12.712c0,5.926,4.802,11.023,11.527,12.366
			v23.747H27.9v-4.95h4.95v-8.213H27.9V25.068C34.595,23.711,39.375,18.616,39.375,12.712z M31.052,37.463v4.612h-4.951v4.95h-3.321
			V23.551l-0.764-0.117c-6.238-0.96-10.765-5.469-10.765-10.722C11.25,6.695,17.155,1.8,24.413,1.8s13.162,4.896,13.162,10.912
			c0,5.234-4.506,9.739-10.715,10.715l-0.76,0.119v13.917H31.052z"/>
		<path d="M34.875,12.712c0-4.527-4.692-8.212-10.462-8.212c-5.77,0-10.463,3.685-10.463,8.212c0,4.528,4.693,8.213,10.463,8.213
			C30.181,20.925,34.875,17.24,34.875,12.712z M24.413,19.125c-4.777,0-8.663-2.877-8.663-6.413c0-3.535,3.886-6.412,8.663-6.412
			c4.775,0,8.662,2.877,8.662,6.412C33.075,16.248,29.188,19.125,24.413,19.125z"/>
	</g>
</g>
<g>
</g>
<g>
</g>
<g>
</g>
<g>
</g>
<g>
</g>
<g>
</g>
<g>
</g>
<g>
</g>
<g>
</g>
<g>
</g>
<g>
</g>
<g>
</g>
<g>
</g>
<g>
</g>
<g>
</g>
</svg>
